<?xml version="1.0" standalone="no"?>
<!DOCTYPE svg PUBLIC "-//W3C//DTD SVG 20010904//EN"
 "http://www.w3.org/TR/2001/REC-SVG-20010904/DTD/svg10.dtd">
<svg version="1.0" xmlns="http://www.w3.org/2000/svg"
 width="519.000000pt" height="519.000000pt" viewBox="0 0 519.000000 519.000000"
 preserveAspectRatio="xMidYMid meet">
<metadata>
Created by potrace 1.14, written by Peter Selinger 2001-2017
</metadata>
<g transform="translate(0.000000,519.000000) scale(0.100000,-0.100000)"
fill="#000000" stroke="none">
<path d="M3608 4565 c-1 -1 -41 -6 -88 -9 -47 -4 -103 -9 -125 -11 -47 -5
-131 -12 -235 -20 -164 -13 -168 -14 -175 -58 -32 -191 -56 -348 -65 -417 -10
-79 -14 -105 -25 -170 -2 -14 -7 -43 -9 -65 -3 -22 -12 -76 -20 -120 -8 -44
-17 -98 -20 -121 -3 -22 -14 -96 -26 -165 -27 -158 -27 -163 -35 -229 -3 -30
-10 -80 -15 -110 -5 -30 -12 -68 -14 -85 -3 -16 -7 -43 -10 -60 -3 -16 -8 -52
-11 -80 -4 -27 -8 -57 -10 -65 -3 -8 -11 -54 -20 -102 -38 -218 -100 -389
-175 -480 -68 -83 -177 -145 -304 -173 l-29 -6 7 126 c3 70 8 130 10 133 2 4
7 29 10 57 4 27 14 83 22 125 7 41 14 80 14 87 0 12 -94 81 -156 114 -17 10
-64 39 -105 66 -41 26 -81 52 -90 58 -9 5 -45 27 -80 49 l-64 38 -95 -7 c-52
-3 -106 -8 -120 -10 -14 -1 -64 -6 -110 -10 -47 -3 -101 -8 -120 -10 -19 -2
-66 -7 -105 -10 -38 -4 -74 -11 -78 -15 -15 -13 -29 -88 -51 -266 -14 -110
-15 -424 -1 -494 35 -185 78 -299 156 -415 71 -107 143 -166 394 -322 22 -14
82 -51 133 -84 51 -32 95 -59 99 -59 3 0 14 -6 22 -14 38 -34 160 -89 254
-113 93 -25 117 -27 277 -27 195 1 338 22 470 68 41 15 80 28 85 29 29 8 157
74 205 106 356 231 577 629 655 1176 3 22 12 78 20 125 8 47 17 103 20 125 4
22 15 94 25 160 10 66 21 143 25 170 3 28 26 176 51 330 25 154 47 294 50 310
2 17 9 55 14 85 5 30 11 78 14 105 8 69 15 116 21 145 3 14 8 45 11 70 3 25
10 63 14 85 5 22 11 65 15 95 l6 55 -63 41 c-35 23 -108 69 -163 103 -55 34
-134 84 -175 110 -75 47 -105 62 -112 56z"/>
</g>
</svg>
